# xmcd
#
# Track frame offsets:
#	150
#	6080
#	21478
#	44528
#	64213
#	84053
#	103335
#	122035
#	132253
#	150693
#	171375
#	187588
#	206690
#	219295
#	240930
#	264975
#	286240
#	308430
#
# Disc length: 4421 seconds
#
# Revision: 1
# Processed by: cddbd v1.4PL0 Copyright (c) Steve Scherf et al.
# Submitted via: EasyCDDAExtractor 5.0.6
#
DISCID=ed114312
DTITLE=Ja Rule - Venni Vetti Vecci
DYEAR=1900
DGENRE=
TTITLE0=The March Prelude
TTITLE1=We Here Now
TTITLE2=World's Most Dangerous
TTITLE3=Let's Ride
TTITLE4=Holla Holla
TTITLE5=Kill 'Em All
TTITLE6=Nigguz Theme
TTITLE7=Suicide Freestyle
TTITLE8=Story to Tell
TTITLE9=Count On Your Nigga
TTITLE10=It's Murda
TTITLE11=E-Dub and Ja
TTITLE12=187 Murda Baptiss Church (Skit)
TTITLE13=Murda 4 Life
TTITLE14=Daddy's Little Baby
TTITLE15=Race Against Time
TTITLE16=Only Begotten Son
TTITLE17=The Murderers
EXTD=
EXTT0=
EXTT1=
EXTT2=
EXTT3=
EXTT4=
EXTT5=
EXTT6=
EXTT7=
EXTT8=
EXTT9=
EXTT10=
EXTT11=
EXTT12=
EXTT13=
EXTT14=
EXTT15=
EXTT16=
EXTT17=
PLAYORDER=
